<svg id="Layer_1" data-name="Layer 1" xmlns="http://www.w3.org/2000/svg" viewBox="0 0 1000 1000"><defs><style>.cls-1,.cls-2{fill:none;}.cls-2{stroke:#525761;stroke-miterlimit:60.25;stroke-width:23.28px;}.cls-3{fill:#525761;}.cls-4{fill:#fff;}</style></defs><path class="cls-1" d="M253.22,253.21H746.78V746.79H253.22Z"/><circle class="cls-2" cx="500" cy="499.18" r="216.45"/><path class="cls-3" d="M540.17,664c3.28-1.64,9-5.74,9-7.38.82-1.64,2.46-1.64,3.28,0s1.64,5.74,2.46,6.56c.82,1.64.82,2.46-.82,2.46-1.64.82-4.92,0-6.56,1.64-2.46,1.64-4.92,1.64-6.56,2.46a10.4,10.4,0,0,1-4.92.82c-2.45,0-3.27.82-4.91.82H524.6c-1.64,0-4.1.82-5.74.82s-3.28-1.64-1.64-2.46a11.65,11.65,0,0,1,4.92-1.64,15.2,15.2,0,0,0,5.74-1.64c1.64-.82,1.64-1.64,1.64-1.64a26.27,26.27,0,0,0,6.55-.82c1.64,0,.82.82,4.1,0Zm-39.35-81.17c1.64.82,6.56,3.28,6.56,4.92s-2.46,7.38-4.92,7.38-14.76-6.56-12.3-9.84C493.44,578.71,497.54,581.17,500.82,582.81Zm85.27-162.34c-3.28-.82-6.56-1.64-4.1-4.1s2.46-4.92,4.1-6.56,3.28-3.28,2.46-4.92-4.1-4.1-2.46-5.74,4.92-6.55,5.74-9.83c1.64-4.1,8.2-18.86,9-22.14,1.64-3.28,1.64-6.56,3.28-9s9.83-13.94,14.75-14.76a18.51,18.51,0,0,1,7.38,0s11.48,9,13.94,11.48c3.28,3.28,25.42,31.16,28.7,35.26,1.64,2.46,18.85,36.07,21.31,44.27.82,3.28,4.1,12.3,5.74,17.22.82,1.64,4.1,26.23,4.1,26.23s-8.2,4.1-9.84-1.64c-.82-3.28-3.28-15.57-4.1-18s-3.28-7.38-4.1-9.84-2.46-8.2-3.28-10.66-5.73-14.76-7.37-18a24.89,24.89,0,0,1-2.46-9c-.82-1.64-6.56-11.48-.82-13.12s-5.74-13.93-8.2-13.93c-5.74-.82-18-6.56-22.14-4.92-1.64.82-3.28,4.1-1.64,5.74s11.48,4.1,13.94,4.92,6.56,3.28,6.56,6.55c0,1.64-2.46,4.1,0,6.56,2.46,1.64,6.56,1.64,5.74,7.38s.82,7.38,3.28,10.66,2.46,7.38,4.1,10.66c.82,2.46-6.56.82-7.38-1.64-1.64-3.28-4.92-11.48-7.38-13.94-1.64-1.64-4.92,0-4.92,1.64.82,2.46,4.92,10.66,6.56,13.94,2.46,3.28,9,5.74,10.66,9s4.92,7.38,6.56,9.84,6.55,6.56,6.55,15.57c0,5.74,3.28,11.48,4.1,13.94s-4.1,2.46-5.74,1.64c-2.46-2.46-4.09-4.92-4.09-9,0-4.92-3.28-15.57-7.38-21.31-4.92-6.56-7.38-9.84-9-11.48-2.46-1.64-8.2-7.38-10.66-10.66a67.83,67.83,0,0,1-7.38-13.12c-1.64-4.1-5.74-3.28-6.56.82-.82,3.28-.82,6.56,4.1,12.3s6.56,9.84,9.84,10.66,5.74,0,9,4.92,10.66,17.22,10.66,20.49c.82,3.28-7.38,2.46-8.2-1.63-.82-3.28-4.1-11.48-5.74-13.94s-2.46-4.92-4.92-3.28.82,6.56,1.64,8.2c.82,2.46-4.1,4.1-5.74,1.64-2.46-2.46-3.28-7.38-4.92-9.84-.82-2.46-4.1-4.92-4.92-4.1-2.46,1.64-.82,5.74,0,9.84.82,3.28-1.64,4.92-4.1,3.28-3.28-2.46-2.46-9-4.92-11.48-2.46-3.28-5.74-4.92-5.74-7.38-.82-3.28,0-6.56,1.64-8.2,3.28-2.46,1.64-4.92,1.64-7.38,0-1.64-1.64-3.28-1.64-5.74,0-3.28,1.64-3.28,3.28-4.92a9.05,9.05,0,0,0,0-6.56c-.82-1.64-2.46-4.1.82-4.92a8.11,8.11,0,0,1,6.56.82c2.46.82,7.38,4.1,9,4.1s7.38,0,6.56-4.92c0-1.64-4.92-4.1-6.56-3.28s-4.92.82-6.56-.82c-2.46-1.63-9-8.19-9.84-9s3.28-8.2,6.56-9.84,8.2-2.46,6.56-4.92c-1.64-3.28-5.74-3.28-7.38-5.74s-4.92-5.74-7.38-4.1a15.57,15.57,0,0,1-7.38,2.46c-1.64.82-4.92,3.28-5.74,6.56s-8.19,16.4-8.19,20.5c0,1.64-5.74,5.73-4.92,8.19s2.46,1.64,4.1,1.64.82,4.1-1.64,6.56-2.46,5.74-3.28,6.56c-.82,1.64-4.92,1.64-4.92,3.28,0,.82-2.46,2.46-4.92,4.1Zm26.23-86.09s-13.93,7.38-16.39,9.84c-1.64,2.46-4.92,14.76-5.74,16.4a11.85,11.85,0,0,0-1.64,5.74c0,2.46,0,4.1-1.64,9.84-2.46,5.74-4.1,9-4.92,13.94s1.64,7.37-.82,11.47-4.92,6.56-4.92,9c-.82,2.46-2.46,4.92-3.28,7.38s-7.38,4.92-5.74.82,4.92-16.4,8.2-31.15c2.46-13.94,3.28-21.32,7.38-36.08,4.92-13.94,22.14-23.78,22.14-23.78l7.37,6.56Z"/><path class="cls-3" d="M566.41,564.77a16.53,16.53,0,0,1-7.38,5.74c-2.46.82-3.28,4.92-3.28,8.2s4.92,5.74,6.56,5.74.82-3.28.82-5.74c-.82-2.46,1.64-4.92,3.28-5.74s2.46,2.46,4.1,8.2,5.74,8.2,8.2,8.2a51.21,51.21,0,0,1,9.84.82c4.1.82,7.38,1.64,6.56,4.1s1.64,5.74,3.28,5.74c1.64-.82,4.1-4.1,3.28-5.74s-5.74-7.38-11.48-9.84-7.38-2.46-9.84-6.56c-3.28-4.1-1.64-11.48-.82-17.22s-1.64-7.38-4.92-6.56-4.92,1.64-4.92,4.92C569.69,561.49,568.05,563.13,566.41,564.77Zm-32.79,19.68c-4.92-.82-4.1.82-3.28,2.46,0,1.64,3.28,4.1,3.28,4.92.82.82-1.64,6.56,4.09,4.92,1.64-.82,2.46.82,3.28,3.28.82,1.64.82,4.1.82,5.74s2.46,2.45,4.1,4.09c3.28,3.28,9,4.1,13.12,4.1s9.84,0,14.76-2.46c3.28-1.64,9.84-3.28,11.48-4.1s5.74.82,7.38,0,.82-3.27,0-4.91-4.1-1.64-5.74-1.64a16,16,0,0,1-5.74-.82c-2.46-.82-3.28-1.64-7.38-.82-3.28.82-12.3.82-16.4-.82s-6.56-6.56-7.38-9c-1.64-3.28-4.92,0-7.38,0-1.64-.82-4.92-3.28-9-4.92Zm23,48.37a12.22,12.22,0,0,0,2.46,6.56c.82.82,4.1,4.92,6.56,5.74,1.64,0,5.74-.82,8.2-.82,3.28-.82,4.1-5.74,0-6.56-2.46-.82-5.74-1.64-6.56-5.74s-.82-5.74-4.92-5.74C560.67,627.08,556.57,627.08,556.57,632.82Zm21.32-10.66c1.64-.82,11.48-.82,13.12-.82a26,26,0,0,1,4.1,4.92c0,.82,3.28,5.74,2.46,8.2-1.64,2.46-2.46,4.1-2.46,6.56s2.46,3.28,5.74,2.46c3.28-1.64,1.64-3.28,5.73-4.92,1.64-.82.82-9,.82-9.84a39.2,39.2,0,0,0-2.45-7.38c-.82-1.64-3.28-2.46-3.28-4.1a3.45,3.45,0,0,0-3.28-3.28c-2.46,0-12.3.82-16.4,2.46s-5.74,4.1-5.74,4.92c-1.64.82-1.64,2.46,1.64.82Zm74.61-67.23c-.82.82-2.46,2.46-1.64,4.1s4.1,5.74,5.74,8.2,2.46,11.48.82,16.4c-.82,3.28,2.46,4.1,2.46,7.38s-3.28,3.28-3.28,4.92,2.46,6.56,0,9.84c-1.64,2.45,0,9,1.64,9,2.46,0,6.56-4.1,9-5.74,1.64-1.64,8.2-13.11,7.38-16.39-1.64-4.1-4.1-3.28-4.1-7.38,0-1.64,2.46-6.56,1.64-8.2s-1.64-1.64-4.1-4.92a15.27,15.27,0,0,1-3.28-9c-.82-1.64-2.46-4.92-3.28-4.92s-.82-.82-2.46-1.64c-.82,0-3.28-3.28-6.56-1.64Zm23.78-3.28c-3.28-2.46-4.1-6.56-4.92-7.38-.82-1.64-6.56-9.83-8.2-10.65s-8.2-8.2-13.94-10.66c-5.74-3.28-11.48-2.46-18.86-1.64s-19.68,9-21.32,9c-2.46,0-4.09-2.46-6.55-4.1s-4.1-.82-6.56-1.64-3.28-1.64-6.56-3.28-4.92-.82-7.38,0,.82,3.28,3.28,4.1c3.28.82,6.56,1.64,9,3.28,1.64,2.46-.82,3.28-3.28,3.28s-4.1-1.64-5.74-2.46-4.1,2.46-3.28,4.1,3.28,1.64,4.92,2.45,8.2-.81,9.84,0,.82,3.28,0,4.92.82,4.1,2.46,5.74c1.64.82-11.48-.82-12.3,1.64-.82,4.1,3.28,4.92,6.56,4.1s2.46,0,12.29-.82c14.76-.82,23.78,5.74,27.88,8.2s8.2,12.3,9,18.86-3.28,9.84-4.1,15.58,3.28,19.67,4.1,23c.82,2.46,4.92.82,4.92,0,0-1.64,0-2.46,1.64-4.92,1.64-1.64,2.46-2.46.82-4.92a23.74,23.74,0,0,1-2.46-11.47c0-4.92,1.64-4.92,3.28-14.76s-3.28-19.68-5.74-25.42-14.76-10.66-17.22-12.3a41.59,41.59,0,0,1-5.74-4.92c-.82-.82-3.28-.82-4.92-2.46s2.46-3.27,4.1-4.09c2.46-1.64,5.74-4.92,7.38-4.1,2.46,1.64-.82,4.92.82,5.74s4.92-2.46,6.56-1.64c1.64,1.64,5.74,4.09.82,4.91-4.1.82.82,3.28,2.46,3.28.82,0,5.74-3.28,7.38-1.64s-1.64,4.92,1.64,5.74c1.64,0,3.28.82,5.74.82,3.28,0,2.46,3.28,3.28,3.28s4.92-.82,9,.82c3.28,1.64,9,6.56,10.65,8.2,2.46,3.28,5.74-.82,6.56-2.46s-.82-4.1-1.64-4.1-3.28,1.64-5.74.82Zm-92.65-78.71c-1.64,2.46,0,7.38,1.64,6.56,2.46-.82,4.92-2.46,5.74-2.46a7.84,7.84,0,0,1,7.38-2.46c4.1.82,10.65,4.1,12.29,4.92.82.82,4.1,2.46,4.1,5.74s-3.28,3.28-5.74,4.92c-1.64.82-3.27,2.46-5.73,2.46s-6.56-2.46-9-1.64c-3.28.82-5.74,3.28-3.28,4.92s4.92.82,7.38.82,1.64,4.92-1.64,5.74-4.1,4.92-1.64,4.92c4.1-.82,4.92,2.46,3.28,3.28-1.64,1.64-4.92,1.64-5.74,2.46s1.64,3.28,3.28,3.28c2.46,0,5.74-2.46,6.56-2.46,2.46-1.64,4.91-.82,7.37.82,1.64,1.64,6.56-3.28,11.48-4.1s9-2.46,10.66-2.46c2.46,0,2.46,4.92,3.28,4.92a47.06,47.06,0,0,1,9.84.82c3.28.82,8.2,3.28,10.66,2.46,4.1-1.64.82-4.92,0-5.74a7.39,7.39,0,0,1-.82-4.1c-.82-1.64-3.28-3.28-3.28-4.92,0-2.46,1.64-8.2-3.28-9.84-5.74-1.64-8.2-1.64-8.2-2.46,0-1.64,0-4.1-.82-4.1-1.64,0-15.58-.82-17.22-1.64-3.28-.82-9-9.84-14.76-10.66-5.73-1.64-9.83-3.28-14.75-.82-4.1.82-6.56,1.64-9,.82Zm-54.11,13.12c.82-1.64-2.46-2.46-4.92,0-3.28,2.46-.82,8.2,1.64,9s6.56,2.46,11.47.82c3.28-.82,5.74-2.46,5.74-6.56,0-1.64-2.46-3.28-4.92-3.28-2.46-.82-2.46.82-2.46,1.64.82.82,2.46,1.64,0,4.92-2.45,2.46-6.55,1.64-8.19,0-.82-2.46,1.64-5.74,1.64-6.56Zm-72.15,0c-3.28,3.28-1.64,5.74,0,8.2,1.64,1.64,9.83,2.46,13.11.82,3.28-.82,5.74-4.92,4.92-7.38,0-1.64-1.64-3.28-3.28-4.1s-2.46,1.64-1.64,3.28,1.64,5.74-4.1,5.74c-5.73.82-4.91-4.1-4.09-6.56C463.93,482.78,461.47,482.78,457.37,486.06ZM509,554.93c-3.28-2.46-1.64-11.48-4.92-11.48-1.64,0-4.1,1.64-5.74,2.46s-2.46-.82-6.56,0-1.64,4.1-.82,6.56c1.64,4.1,5.74,2.46,7.38,2.46,1.64.82,1.64,1.64,3.28,1.64s3.28-.82,4.92,1.64c3.28,4.1,6.56.82,2.46-3.28ZM437.69,471.3c-4.1,3.28-6.56,4.92-5.74,9s7.38,5.74,9,5.74,4.92-4.92,5.74-7.38,2.46-5.74,1.64-7.38c-1.64-2.46-6.56-4.1-10.66,0Zm19.68,27.88c-2.46,0-3.28-.82-6.56-2.46s-4.1,2.46-2.46,3.28,4.92,1.64,11.48,2.46h10.65c1.64,0,4.92-.82,4.92,2.46,0,4.1-4.1,2.46-5.74,2.46-2.46,0-8.19,0-11.47-.82s-11.48-2.46-14.76-4.1c-1.64-1.64-4.1-4.1-6.56-4.92-3.28-.82-5.74,4.92-3.28,5.74,1.64.82,4.1,2.46,1.64,4.92-3.28,3.28-.82,8.2,0,9.84,1.64,1.64,4.92,6.56,6.56,8.2s4.1.82,5.74,1.64c.82.82,4.92,3.28,6.56,5.74,1.64,1.64,4.1-.82,5.74-2.46,2.46-1.64,4.1,1.64,3.28,3.28s-1.64,1.63-3.28,5.73-5.74,3.28-8.2,3.28a2.41,2.41,0,0,0-2.46,2.46s1.64,2.46,1.64,4.1-3.28,2.46-5.74,2.46a24.26,24.26,0,0,1-8.2-1.64c-2.46-.82-1.64,2.46.82,4.1,1.64,1.64,4.1,5.74,7.38,6.56,1.64.82,4.92,0,5.74-.82,2.46-1.64,6.56-3.28,6.56-5.74s-1.64-4.92,1.64-6.56c2.46-1.64,4.92,1.64,6.55,3.28s4.92,0,7.38-2.46,2.46-8.2,1.64-10.66c-.82-3.27-3.28-2.45-5.74-4.09-3.28-2.46,1.64-5.74,1.64-5.74s8.2-4.1,7.38-8.2.82-9,1.64-11.48c.82-1.64-2.46-1.64,0-5.74,1.64-3.28,7.38-6.56,7.38-9.84.82-3.28-2.46-4.92-4.92-5.74s-3.28,2.46-3.28,5.74c-.82,3.28-4.1,4.92-7.38,5.74ZM484.42,607.4a13.22,13.22,0,0,1-5.74,3.28c-2.46.82-.82,7.38,2.46,7.38,1.64,0,4.92,1.64,6.56,4.1a41.59,41.59,0,0,0,4.92,5.74,44.46,44.46,0,0,0,9,4.92c4.92,1.64,15.58,1.64,18.86,1.64s.82-3.28-1.64-3.28-13.94-1.64-16.4-3.28a19,19,0,0,1-5.74-5.74c-.82-1.64-3.28-1.64-4.92-4.1a18.69,18.69,0,0,1-2.46-9c0-3.28-3.28-3.28-4.92-1.64ZM581.17,650c-1.64,1.64-3.28,1.64-5.74,2.46s-4.92,3.28-9,4.1c-1.64,0-5.74.82-6.56,0s-1.64-6.56-1.64-9-3.28-5.74-4.1-6.56-.82-1.64-1.64-3.28c-1.64-2.46-3.28-3.28-4.1-3.28-.82.82-1.64.82-3.28,1.64a6.74,6.74,0,0,1-4.92-3.28c-2.46-1.64-7.37-1.64-9-1.64s0,3.28,1.64,4.92c1.64.82,3.27,4.1,3.27,4.92.82.82,3.28,1.64,5.74,1.64a3.87,3.87,0,0,1,4.1,4.1c0,2.46-3.28,2.46-4.92,3.28a4.6,4.6,0,0,1-4.92.82c-1.63-.82-1.63-4.1-3.27-6.56-.82-1.64-7.38-4.92-11.48-5.74-4.92-1.64-13.12.82-15.58,2.46s-8.2,4.1-9.84,4.1-3.28-.82-5.74,0-5.74,6.56-6.56,8.2-3.28,5.74,0,6.56,7.38-.82,9.84-1.64,7.38-3.28,9.84-4.1,5.74-1.64,9-2.46,4.1-2.46,5.74-4.1,4.1,0,5.74.82a15.45,15.45,0,0,0,6.56,1.64c2.46.82,2.46,2.46,1.64,2.46-.82.82-3.28,1.64-5.74,2.46s-4.92,2.46-6.56,2.46c-2.46.82-7.38,3.28-8.2,3.28a62.49,62.49,0,0,0-10.66,5.74c-.82.82-3.28.82-4.92,1.64s-2.46,3.28,0,4.92,7.38,1.64,11.48.82a74,74,0,0,1,19.68-.82c6.56.82,14.75,0,18-1.64s5.74-1.64,9-1.64,4.92.82,6.56,0,4.92-3.28,8.2-4.1,8.2-2.46,10.66-4.1,3.28-4.1,4.92-5.74,4.1-1.64,6.56-2.46c1.64-.82,2.46-.82,1.64-1.64,0-.82-1.64-2.46-2.46-3.28s0-4.92,0-6.56-5.74-2.46-5.74.82c0,2.46-1.64,6.56-3.28,7.38Zm4.1-90.19c-2.46,4.1-.82,4.1,2.46,6.56s2.46,6.56,2.46,9.84,4.1,4.1,5.74,4.92,3.28,4.1,4.92,4.92c2.46.82,4.1.82,6.55,3.28s1.64,5.74,3.28,9c2.46,4.1,5.74,2.46,6.56,5.74.82,1.63-.82,4.09-.82,5.73s1.64,9,1.64,13.94c0,5.74-4.1,9.84-4.92,13.12s.82,2.46,2.46,5.74-6.56,3.28-7.38,4.92c-.82.82-4.91,5.74-6.55,6.56s-7.38,7.38-7.38,10.66c-.82,5.74-24.6,6.56-23.78,19.67,0,4.1-5.74,2.46-13.94,6.56-5.74,2.46-17.22-2.46-20.5-2.46s-30.33,2.46-33.61,1.64c-2.46,0-7.38-4.1-8.2-4.92-3.28-1.64-5.74-3.28-10.66-4.1-5.74-.82-8.2-1.64-8.2-3.28-.82-.82.82-3.27,1.64-4.91a8.79,8.79,0,0,0-1.64-4.92c-.82-.82-1.64-6.56-1.64-8.2,0-3.28,2.46-8.2,4.1-11.48s3.28-3.28,4.92-4.92,7.38-2.46,6.56-4.92c0-1.64-2.46-4.1-4.92-5.74s-6.56.82-10.66,1.64c-4.1,1.64-9,6.56-9.83,8.2s-2.46,6.56-4.1,9.84,0,8.2,2.46,13.94c.82,1.64.82,4.92,1.64,7.38s3.27,4.09,4.91,5.73,1.64,4.1,1.64,5.74-1.64,9,0,12.3c1.64,2.46,9,2.46,8.2.82s.82-10.66,5.74-10.66c9,0,9.84,9,13.12,10.66.82,0,7.38,0,19.68-.82,16.4-.82,35.25-4.1,35.25-4.92,1.64,0,16.4-6.56,17.22-7.38s10.66-4.1,18-7.38,18.85-9,18-10.65c-3.27-4.92,0-10.66,1.64-12.3,2.46-1.64,11.48-7.38,13.12-8.2,4.1-3.28,6.56-6.56,7.38-9,.82-1.64.82-4.92,1.64-6.56s6.56-1.64,6.56,1.64c-.82,2.46,3.28,4.92,5.74,5.74,1.64.82,4.92-4.1,5.74-4.92,2.46-3.28-.82-9-7.38-7.38-4.92.82-2.46-5.74-2.46-6.56,0-1.64-4.1-1.64-4.92-4.92,0-.82-1.64-4.1-2.46-5.74-1.64-1.64-4.1-2.46-4.1-4.09s2.46-1.64,2.46-4.1-.82-5.74-.82-8.2-1.64-11.48.82-12.3,2.46,1.64,3.28,4.1,4.1,2.46,4.92,1.64a40.24,40.24,0,0,0-.82-9c-.82-3.28-7.38-7.38-9-7.38-3.28-2.46-3.28-3.28-4.92-4.1s-13.94-.82-18.85-1.64c-5.74-.82-10.66-3.28-12.3-4.92-2.46-1.64-2.46-1.64-5.74.82Zm-138.56,100c-4.1-1.64-10.66,1.64-11.48,4.1-1.64,3.28,2.46,6.56,6.56,8.2,3.28.82,8.2,1.64,9.84-1.64C454.09,666.44,450,660.7,446.71,659.88Zm-4.92-13.12c1.64-.82,5.74-1.64,8.2-2.46,1.64,0,3.28,0,4.1-.82a29.5,29.5,0,0,0,4.1-7.38c.82-2.46,2.46-3.28,4.92-4.92s2.45-4.1,4.09-5.74c.82-1.64,5.74-.82,5.74-4.1s-6.56-2.46-9-2.46c-3.28,0-6.56,1.64-10.66,3.28-3.28,1.64-5.74,2.46-8.2,4.1s-4.92,3.28-5.74,4.92-.82,3.28-2.46,4.92a5,5,0,0,1-6.56,0c-1.64-1.64-1.64-4.92-3.28-5.74a17.92,17.92,0,0,1-4.1-2.46c-.82-1.64-.82-2.46-2.46-3.28s-2.46,0-3.28-1.64c-.82-2.46,0-4.1-2.46-6.56s-3.28-7.38-4.92-8.2-4.92-1.64-4.92-3.27a5.1,5.1,0,0,1,3.28-4.92c2.46-.82,1.64-4.92,2.46-6.56s5.74-5.74,9.84-6.56,5.74-2.46,6.56-1.64,0,4.1.82,4.92c1.64.82,10.66,3.28,13.12,1.64,2.46-.82,7.38-4.92,10.66-4.92s4.92,1.64,3.28,3.28c-.82,2.46-5.74,4.1-7.38,5.74a38.34,38.34,0,0,1-4.1,4.92,17.57,17.57,0,0,1-4.92-.82c-2.46,0-9,.82-10.66,5.74S427,614,427,615.6s1.64,5.74,1.64,6.56,3.28.82,4.92,0,3.28-4.1,2.46-5.74c0-1.64-2.46-8.2.82-9.84,1.64-.81,5.74,0,5.74.82s0,3.28,1.64,3.28a19.3,19.3,0,0,1,6.56-1.64c1.64,0,5.74,1.64,7.38,1.64,7.37-.82,7.37-3.28,8.19-5.73,1.64-5.74,6.56-9.84,10.66-8.2,4.92,1.64,6.56-1.64,9-2.46s3.28,0,4.92,1.64,4.1,8.2,6.56,12.29,5.74,7.38,7.38,8.2,4.92,1.64,5.74,2.46a22.7,22.7,0,0,0,6.56,4.1c2.46.82,10.66-1.64,12.3-1.64s4.92,2.46,6.55,4.1c1.64,2.46,2.46,2.46,4.1,3.28,1.64,1.64,4.1,2.46,4.1,0s-.82-8.2-3.28-10.66-4.1-4.92-5.73-4.92-6.56-1.64-7.38-1.64c-3.28-.82-6.56-3.28-8.2-4.1-1.64-1.63-.82-5.73-.82-7.37a49.09,49.09,0,0,0-1.64-9.84c-2.46-6.56-2.46-9-3.28-12.3s0-9-2.46-9.84A42.74,42.74,0,0,0,500,566.41c-4.1.82-5.74,1.64-8.2,0-2.46-.82-4.1-3.28-8.2-2.46s-4.92,0-6.56-.82-3.28-.82-5.74,0-3.28,3.28-1.64,3.28c1.64.82,4.1,0,4.92,1.64a17.15,17.15,0,0,0,3.28,4.92c1.64,1.64,3.28,3.28,3.28,4.1-.82.82-3.28,2.46-4.1,1.64-.82,0-4.1-2.46-6.56-4.1s-4.92-4.1-8.19-3.28c-1.64.82-1.64,4.92-3.28,5.74s-4.1,1.64-4.92.82c-1.64-1.64-2.46-6.56-4.1-7.38a11.06,11.06,0,0,0-9,0c-4.1,2.46-6.56,2.46-8.2,2.46-2.46.82-5.74.82-8.2,1.64s-5.74,3.28-10.66,3.28c-4.1,0-11.48-.82-12.3,1.64s-2.46,4.1-1.64,5.74-2.46,5.74-4.92,3.28c-3.27-2.46-1.63-9-.82-10.66.82-2.46,4.1-17.22,5.74-18.86s5.74-9.84,9-11.48c2.46-1.64,5.74-.82,6.56.82.82,2.46.82,8.2,0,9s-2.46,0-4.92,1.64-5.74,5.74-4.92,8.2c0,1.64-.82,3.28,2.46,2.46,3.28,0,4.1-.82,4.92-.82.82.82,3.28,1.64,6.56,0,2.46-1.64,7.38-1.64,6.56-8.2,0-7.38-.82-10.66,0-13.12,1.64-3.28,3.28-5.74,0-9s-5.74-6.55-9.84-7.37c-8.2-.82-4.92,3.28-6.56,4.1a13.71,13.71,0,0,1-9,1.63c-3.28-.82-7.37-.82-9,1.64-1.64,3.28-3.28,4.1-4.1,7.38,0,2.46-2.46,7.38-4.1,9-1.64,2.46-2.46,3.28-3.28,6.56a60.55,60.55,0,0,0-1.64,9.84c0,1.64,4.1,14.76,4.92,18.86,1.64,4.1,3.28,12.3,4.92,13.94s3.28,1.64,4.92,0a5,5,0,0,1,5.73.82c.82,1.63,0,9,.82,10.65,0,1.64,2.46,4.92,3.28,5.74s0,2.46,1.64,4.1c.82,1.64,2.46,2.46,4.1,3.28,2.46.82,4.1,1.64,4.92,3.28s.82,3.28,3.28,4.92,5.74,4.1,5.74,5.74-2.46,3.28-5.74,4.1-8.2,1.64-9.84,3.28c-.82,1.64-2.46,3.28.82,4.1,2.46.82,9.84.82,14.76-.82s10.66-3.28,11.48-4.92c3.28,2.46,5.74-.82,7.38-1.64Zm-54.11,6.56c0-4.1-5.74-6.56-8.2-8.2-9-4.92-4.92-9-8.2-11.48s-5.74,8.2-4.92,9.84.82,5.74,3.28,7.38a59.63,59.63,0,0,1,7.38,6.56c1.64.82,8.2,4.92,9,6.56A57.39,57.39,0,0,0,387.68,653.32Zm11.47,16.4c1.64.82,12.3,7.37,14.76,9s24.6,13.94,31.16,14.76c6.56,1.64,2.46-8.2-1.64-11.48-4.92-3.28-9.84-4.1-17.22-8.19-7.38-3.28-15.58-6.56-18-7.38-5.74-1.64-9,3.28-9,3.28ZM350.78,614c-.82,4.92,8.2,2.46,11.48,2.46s5.74,3.28,9.84,5.74,5.74,4.1,7.38,6.56,13.94,10.66,16.39,11.48c5.74,2.46,4.92-.82,1.64-4.1-4.09-4.92-13.11-18-15.57-20.5-1.64-1.64-4.1-10.65-9-11.47-4.1-.82-2.46.82-9-.82q-9.84-3.69-9.84,0c0,2.46,2.46,4.09.82,4.91s-2.46,1.64-4.1,5.74Zm-4.92-8.19c4.1-4.1,4.92-11.48,9-17.22,3.28-4.92,4.92-6.56,7.38-8.2s3.28-2.46,1.64-4.92c-.82-1.64,0-2.46,4.1-4.1,4.1-2.46,5.74-2.46,7.38-7.38.82-2.46,6.56-13.12,4.92-14.76-2.46-.82-4.92-2.46-4.92-4.92.82-2.46,4.1-2.46,5.74-3.28s1.64-2.46-.82-3.28c-1.64-1.64-6.56-1.64-9.84-.82-2.46.82-4.1,3.28-5.74,5.74-2.46,2.46-4.1.82-6.56,4.1s-4.1,12.3-4.92,15.58c-1.64,3.28-1.64,2.46-3.28,4.1-1.64,2.46,2.46,1.64,3.28,4.1s.82,4.1-.82,4.1c-7.38.82-2.46,3.28-3.28,6.56,0,3.28-7.38,16.4-8.2,18.86-.82,4.1,1.64,6.55,4.92,5.74Zm-16.4-24.6c1.64.82,0,6.56,2.46,9,1.64,1.64,4.92-2.46,5.74-6.56.82-4.92-1.64-13.12.82-16.4s4.1-5.74,4.92-9.84c0-4.1,3.28-6.56,4.92-9s6.56-6.56,7.38-8.2c.82-2.46-.82-4.1-4.1-3.28s-9,5.74-12.3,8.2c-1.64,1.64-9.84,11.48-10.66,13.12-2.46,3.28,2.46,4.92,0,9.84-.82,1.64-.82,4.1-1.64,5.74-4.09,3.28-.82,6.56,2.46,7.38ZM368.82,532c1.64-.82,2.46-1.64,4.92-.82s14.76,3.28,22.95,2.46,17.22-5.74,18.86-8.2,4.1-4.92,4.92-6.56.82-5.74-.82-6.56-5.74-2.46-7.38-.82-4.1,1.64-6.56,1.64a38.62,38.62,0,0,0-12.29,1.64,89.76,89.76,0,0,0-18.86,7.38c-3.28,1.64-7.38,5.74-8.2,7.38-.82.82.82,3.28,2.46,2.46Zm7.38-190.22-13.12,10.66s8.2-3.28,9.84.82c2.46,4.92,5.74,7.38,9.84,5.74,3.28-1.64,6.56-.82,9,3.28s4.09,6.56,3.27,10.66c-.81,7.38-7.37,30.33-3.27,46.73,2.46,8.2,1.64,11.48,10.65,23,4.92,5.74,14.76,13.94,15.58,15.58,1.64,1.64,1.64,4.92,3.28,4.1s0-8.2-3.28-11.48c-3.28-4.1-18.86-13.94-20.5-28.7s.82-23.78,2.46-27.88,1.64-10.65,1.64-13.11c0,0,0-4.92,2.46-4.1s3.28,8.2,3.28,11.48a63.07,63.07,0,0,0,.82,8.19s2.46,5.74,2.46,7.38-2.46,7.38-1.64,9.84,4.1,4.92,5.74,6.56c1.64,2.46-.82,5.74.82,7.38,1.64,2.46,6.56,9.84,9.84,10.66s12.3,4.1,13.94,2.46,5.74-6.56-.82-8.2S422.11,427,419.65,418,418,391,406.53,368s-18.85-20.5-22.95-22.14c-4.1-2.46-7.38-4.1-7.38-4.1ZM522.14,359c-8.2,22.14-9,23-8.2,29.52s4.92,7.37,7.38,3.28,4.1-7.38,7.38-8.2c2.46,0,3.28,3.28,2.46,8.2s3.28,1.64,5.73-1.64,3.28-13.12,4.1-18.86,1.64-9.84,1.64-13.94c0-4.92.82-9.84-.82-9.84-2.46,0-4.1.82-4.1-.82,0-3.28,8.2-9.84,10.66-11.48,3.28-2.46.82-8.2-3.28-5.74-6.56,1.64-15.57,7.38-23,29.52Zm-132-29.52s7.37,8.2,9,7.38,3.28-5.74,4.92-4.92c3.28.82,4.92,6.56,4.92,9s4.1,4.92,4.92,6.56c2.46,2.46,6.56,20.5,8.2,25.42.82,4.92,5.74,39.35,8.2,42.63,4.1,5.74,8.2,5.74,5.74-3.28-3.28-10.66-4.92-33.61-2.46-41.81,1.64-8.2-1.64-22.14-3.28-25.42-1.64-2.46-.82-7.38.82-8.2s6.56,2.46,7.38,6.56c.82,3.28,1.64,24.6,2.46,27.88s3.28,4.92,4.1,7.38c.82,3.28,0,5.74,1.64,9s6.56,12.29,9,14.75c2.46,3.28,5.74,4.1,6.56,1.64s-9-12.29-11.48-24.59c-1.64-7.38-4.92-13.94-4.92-18-.82-2.46-.82-4.92-1.64-5.74-.82-1.64,0-13.94-1.64-16.4s-11.48-10.66-13.12-9.84c-4.92,2.46-10.66-3.28-13.12-4.92-1.64-1.63-9-4.91-9-4.91s14.76-5.74,18-7.38,9-2.46,9-2.46-4.1,5.74-.82,11.48c2.46,4.09,4.1,9.83,6.56,4.09,4.1-8.19,2.46-21.31,8.2-23.77,2.46-.82,13.94,2.46,17.21,4.1.82.82,5.74,8.2,9,8.2a72.77,72.77,0,0,0,12.3,1.64c5.74.82,9.84,6.56,11.48,10.65,3.28,10.66-4.1,23.78-4.1,23.78a31.25,31.25,0,0,0-1.64,10.66c.82,7.38,0,11.48,3.28,11.48s3.28-13.94,5.74-18.86a31.24,31.24,0,0,0,3.28-13.94c.82-4.92,0-19.67-.82-22.13s-4.1-7.38-9.84-8.2-15.58-4.92-13.12-8.2,17.22-1.64,19.68-1.64c2.46.82,7.38,1.64,9,8.2.82,6.56.82,21.31,0,23.77,0,4.1,4.1-.82,5.74,0,2.46,1.64-2.46,10.66-3.28,18.86s-4.1,14.76-1.64,15.58,7.38-12.3,12.3-23.78c4.92-10.66,4.1-9.84,4.1-11.48s-1.64-5.74,1.64-7.37c2.46-1.64,11.47-2.46,17.21-3.28,4.1-.82,6.56-2.46,5.74-4.1s-8.2-2.46-9.84-2.46c-2.46,0-9,1.64-9.83,0-.82-.82.82-13.12.82-13.12s13.11,1.64,18.85,2.46c3.28.82,23,8.2,28.7,10.66,5.74,1.64,17.22,9.84,17.22,9.84s-4.92-.82-8.2,1.63c-4.92,4.1-9.84,4.1-13.94,4.1-4.92,0-13.12-2.46-18,7.38s-8.2,25.42-9,35.26-5.74,18.86-3.28,19.68c3.28.82,6.56-6.56,8.2-13.12a34.81,34.81,0,0,1,4.92-12.3c1.64-2.46,5.74-6.56,5.74-.82s-3.28,11.48-6.56,18.86-3.28,11.47-5.74,13.93c-4.92,4.1-6.56,8.2-2.46,8.2,2.46,0,7.38,0,5.74,2.46-1.64,3.28-5.74,4.92-3.28,6.56,1.64,1.64,6.56.82,7.38-2.46s0-9,2.46-11.48c1.64-1.64,4.1.82,3.28,3.28-1.64,4.92,3.28,2.46,1.64,8.2-.82,2.46-4.1,6.56-3.28,7.38.82,1.64,4.92,4.1-5.74,5.74-3.28,0-17.22-4.1-21.32-6.56-4.91-2.46-9-7.38-13.11-9s-13.12-4.1-14.76-4.92a6.17,6.17,0,0,1-4.1-5.74c0-1.64-4.92-6.55-8.2-12.29-3.28-4.92-8.2-10.66-6.56-22.14,1.64-10.66,1.64-29.52-2.46-35.26s-16.4-13.93-19.68-18c-2.45-4.92-9-8.2-13.11-8.2-3.28,0-.82,18-.82,23.77a13.51,13.51,0,0,0,3.28,9c1.64.82,4.1,4.92,4.1,9,0,4.92-4.92,2.46-4.1,9,.82,4.1,3.28,3.28,4.92,3.28s2.46,7.38,1.64,8.2a4.51,4.51,0,0,0-2.46,4.1c.82,2.46,1.64,9,4.1,9s4.09-4.1,4.09-6.56.82-26.24,1.64-30.34-1.64-8.2-4.1-11.48-9-7.37-8.19-11.47,2.46-8.2,3.28-8.2c2.46.82,2.46,5.74,3.28,7.38s15.57,11.47,18.85,15.57c.82,8.2.82,24.6.82,27.06,0,3.28-4.1,5.74-4.92,3.28-.82-4.92,1.64-11.48-2.46-12.3-3.28,0-4.1,4.92-3.28,12.3s2.46,23,4.1,24.6,4.1,2.46,4.92,4.92,2.46,6.55,5.74,7.37c4.1.82,7.38,2.46,4.92,3.28-4.1,2.46-9.84,4.92-12.3,4.92-8.2.82-13.94,6.56-17.21,9-4.92,3.28-9,11.48-10.66,16.4a21,21,0,0,1-4.92,9.84c-4.1,3.28-9,5.74-11.48,7.38-3.28,1.64-5.74,4.92-.82,4.1s13.94-5.74,14.76-.82-7.38,4.92-10.66,4.92c-3.28.82-9,4.1-5.74,7.37,2.46,2.46,8.2-3.27,12.3-3.27,4.92,0,10.66,3.27,14.76,3.27,4.09.82,12.29.82,15.57,0s14.76-9,21.32-9c4.92,0,9.84,4.1,13.94,6.55,4.92,2.46,10.66,5.74,23,5.74s19.67-4.92,21.31-1.64c.82,3.28-1.64,3.28-1.64,6.56s.82,5.74-.82,6.56c-1.64,1.64-6.56,0-7.38-1.64-1.64-1.64-3.28-3.28-4.92-3.28s-8.19.82-7.37,1.64c.81,1.64,2.45,2.46,6.55,2.46,3.28,0,9,7.38,10.66,8.2s6.56,4.92,5.74,6.56a2,2,0,0,1-3.28.82c-2.46-.82-2.46-3.28-4.92-2.46s-4.1,4.1-7.38,4.92-9.83,1.64-13.11.82c-4.1-1.64-7.38-3.28-9.84-6.56s-4.92-8.2-8.2-13.12-8.2-10.66-10.66-10.66c-2.46.82-3.28,6.56-3.28,11.48.82,5.74,3.28,9,2.46,11.48s-4.1,5.74-4.92,9c0,5.74,3.28,3.28,3.28,5.74s-.82,5.74-2.46,5.74c-1.64-.82-5.74-.82-5.74,1.64-.82,3.28,1.64,2.46,4.1,3.28s2.46,4.1,2.46,5.74c.82,1.64.82,3.28,3.28,4.1,3.28,1.64,4.1-1.64,7.38-1.64,3.28.82,4.1,1.64,6.56,2.46,3.28.82,7.38,0,8.2-1.64s0-4.92-.82-7.38c-1.64-1.64-2.46-5.74,0-5.74,2.46-.82,4.1,3.28,4.92,4.1a75.63,75.63,0,0,0,4.1,6.56c1.64,1.64,3.28,2.46,4.92,4.1a12.54,12.54,0,0,1,3.27,4.92c.82,2.45,5.74,3.27,7.38,4.91s1.64,5.74,3.28,9c2.46,3.28,4.92,4.92,2.46,8.2-2.46,2.46-8.2-4.92-13.12-9-4.09-4.1-9-10.66-12.29-10.66s-3.28,3.28-1.64,9.84,2.46,9.84,3.28,10.66,2.46,0,3.28,0c.82.82,4.1,6.56,8.19,9.84s9,4.92,13.12,3.28,2.46-4.92,3.28-5.74,5.74-2.46,8.2-2.46,2.46-7.38,2.46-9-1.64-3.28-1.64-5.74c.82-1.64,2.46-4.1,2.46-4.92s0-6.56,1.64-9.83c1.64-4.1,4.1-11.48,3.28-18a18.81,18.81,0,0,1,.82-11.48c1.64-4.92,2.46-6.56,1.64-10.66s-1.64-6.56-1.64-9-3.28-4.92-2.46-9c0-1.64,2.46-6.56,2.46-10.65,0-7.38,0-9.84-1.64-13.12-1.64-4.1-4.92-9-6.56-9-4.1-1.64-3.28-4.1-4.92-4.92-.82-.82-3.28-3.28-.82-4.1s4.1.82,7.38-.82,3.28-4.92,4.92-4.92,7.38,1.64,7.38,2.46c-.82,1.64-1.64,5.74,4.92,2.46,1.64-.82,3.28-2.46,5.74-.82s0,3.28-.82,4.92-6.56,2.46-6.56,3.28-.82,3.28,1.64,3.28,6.56-2.46,7.38-3.28,1.64-3.28,3.28-3.28c2.46,0,1.64,1.64,5.74,1.64,4.1-.82,5.74-2.46,7.38-9.84s4.09-21.32,4.91-29.52,1.64-14.75,1.64-16.39a9.37,9.37,0,0,1,2.46-5.74c.82-.82,3.28-7.38,5.74-9,1.64-1.64,5.74-.82,4.1,3.28s-4.92,5.74-4.92,9c0,2.46,1.64,6.56.82,9s-4.92,2.46-4.92,6.55c.82,3.28,1.64,13.12,1.64,15.58s-4.1,3.28-3.28,6.56,1.64,4.92,0,8.2c-1.64,2.46-4.1,7.38-4.1,9-.82,1.64-.82,10.66-2.46,11.48-3.27,1.64-7.37,0-9.83,1.64-1.64,1.64-2.46,4.92-4.92,4.92s-4.1,1.64-5.74,2.46c-1.64,1.64-3.28,5.74-.82,4.1s9-5.74,11.48-5.74,4.92,0,6.56-.82a75.81,75.81,0,0,0,8.19-4.1c2.46-1.64,3.28-5.74,3.28-6.56s4.92-.82,4.92,1.64c0,1.64,1.64,8.2.82,9.84A40.83,40.83,0,0,1,615.6,459s-6.56,2.46-5.74,4.92,5.74.81,8.2,0,7.38-4.1,8.2-3.28-3.28,5.73-1.64,10.65,9.84,5.74,13.12,4.1,3.28-3.28,4.92-3.28c1.64-.82,6.56-.82,8.2,0s5.74,1.64,5.74,3.28-4.92,2.46-3.28,4.92c.82,2.46,2.46,2.46,4.92,1.64s5.74.82,9.84,1.64c3.28.82,14.75,4.1,19.67,5.74,2.46.82,5.74,4.92,5.74,11.48s0,13.12-2.46,13.94c-3.28,0-4.1-8.2-5.74-13.12-2.46-4.92-8.19-8.2-9-7.38s-2.46,2.46.82,6.56c3.27,3.28,4.91,5.74,4.91,8.2s0,4.92.82,5.74c.82,1.64,3.28,4.1,2.46,5.74-.82,2.46-7.38,2.46-9,.82s-.82-13.94-2.46-15.58c-.82-3.28-4.92-12.3-9-13.94-3.28-1.64-7.38,0-6.56,4.1,1.64,4.1,2.46,9.84,4.92,10.66a25.25,25.25,0,0,1,4.92,4.92l-.82,2.46s0,6.56.82,8.2,3.28,3.28,4.1,4.92,2.46,8.19,4.91,11.47,1.64,4.92,4.92,4.92,4.1-2.46,4.92-5.74,10.66-2.46,10.66-2.46-5.74,27.06-9,33.62c-.82,2.46-16.39,32.8-21.31,41-5.74,9-27.06,35.26-32,38.54-3.28,2.46-18,14.76-18,15.58-.82.82-36.89,21.31-39.35,22.95s-33.62,11.48-40.18,13.12c-6.55.82-38.53,3.28-41.81,3.28-4.92-.82-27.88-3.28-35.25-4.1-7.38-1.64-55.76-19.68-59-21.32-4.92-2.46-45.09-35.25-46.73-36.89s-32-43.45-33.61-47.55c-1.64-3.28-12.3-27.88-13.12-31.16s-9.84-42.63-9.84-45.09c-.82-3.28,0-31.16.82-36.08.82-6.56,4.92-27.87,5.74-32.79s9-26.24,14.76-39.36S334.38,386,343.4,374.56c9.84-11.48,36.9-35.26,39.36-38.54,1.64-4.1,7.38-6.56,7.38-6.56ZM310.61,546.73c0,1.64,6.56,4.1,4.92,7.38-3.28,5.74,4.92,8.2,3.28,11.48s-2.46,7.38-4.92,6.56c-2.46-1.64-9.84-25.42-10.66-31.16-.82-3.28-2.46-20.49-2.46-24.59s4.92-4.92,4.92-5.74c1.64-.82,13.12-5.74,14.76-6.56,2.46-1.64,10.65-8.2,11.47-9.84s.82-5.74,1.64-9.84c0-3.28.82-6.56-.82-6.56-2.46-.82-4.92.82-4.92,2.46-.82,2.46-1.64,6.56-3.28,6.56-3.27-.82-5.73,5.74-5.73,8.2,0,4.1-8.2,4.92-7.38,1.64,0-1.64,3.28-13.94,4.1-18,0-3.28-3.28-5.74-1.64-9,1.64-2.46,1.64-12.29,2.46-13.93,1.64-3.28,9-5.74,5.74,4.92-.82,3.28-2.46,6.55.82,8.19,1.63.82,3.27.82,5.73-5.73,1.64-4.1,9-2.46,5.74,4.91-3.28,5.74,4.1,4.92,4.92,5.74,1.64.82,1.64,3.28,1.64,5.74s2.46,3.28,4.92,2.46,12.3-5.74,18-4.92c6.56,1.64,9.84,2.46,11.48,3.28,2.46.82,5.74.82,4.92-2.46s2.46-8.2,2.46-10.66,4.92-4.09,4.1-6.55-8.2-4.92-9.84-4.92-3.28,6.56-4.1,9.83c-.82,4.1-6.56,4.1-7.38.82-1.64-4.91-4.1-4.91-5.74-10.65-.82-4.1-4.92-4.1-7.38-6.56-4.92-4.1-.82-7.38-.82-9-.82-4.92-5.74-5.74-7.38-3.28s-4.92,0-6.56-.82c-2.46,0-9.84.82-13.12.82-4.09.82-4.91,2.46-5.73,4.1-1.64,4.1-9.84-1.64-9.84-1.64s10.66-22.14,12.3-28.7c1.64-5.74,10.65-18.85,11.47-19.67,1.64-3.28,6.56,1.64,1.64,9-3.28,4.1-11.47,18.86-13.93,26.24-1.64,4.92,6.55,4.1,7.37.82.82-1.64,8.2-16.4,11.48-22.14s11.48-19.67,13.12-22.95,4.92-6.56,6.56-9.84,7.38-3.28,4.92,3.28c-2.46,7.38-12.3,23.77-14.76,27.05s-9.84,17.22-10.66,18.86c-.82,2.46-.82,4.92,0,5.74,1.64.82,7.38-1.64,9-4.1s8.2-18.86,9.84-22.14c2.46-3.28,6.56-12.29,9-15.57s8.2.82,5.74,5.74c-6.56,10.65-12.3,23.77-15.58,27.05-3.28,4.1,0,9.84,4.92,4.92,4.1-4.1,5.74-9,8.2-13.12s4.92-9,6.56-10.66c1.64-2.46,6.56,0,5.74,3.28s-4.92,10.66-7.38,13.12a21.85,21.85,0,0,0-4.92,8.2c-1.64,2.46,0,4.92,2.46,6.56,3.28,2.46,4.92,1.64,7.38,4.92,2.46,2.46,4.92,5.74,7.38,6.56,2.46,1.64,5.74,2.46,8.19,5.74,1.64,3.28,4.1,9.84,9,11.48,3.28,1.64,4.92,2.46,6.56,5.74,3.28,4.09,4.92,4.91,7.38,4.91,3.28,0,3.28,4.1,4.1,7.38,0,2.46-3.28,8.2-3.28,11.48s.82,13.12-2.46,13.94c-1.64.82-6.56-1.64-8.2,0s-5.74.82-7.38-.82c-1.64-2.46-4.92-2.46-5.74-1.64-2.45,1.64-4.91,1.64-6.55,0-.82-.82-4.1,0-5.74.82-5.74,2.46-4.92-2.46-4.92-2.46s1.64-4.1,3.28-4.1,4.1,1.64,4.92.82c.82,0,2.46-4.1,4.92-4.92,1.64-1.64,4.09-1.64,3.27-4.92-.81-1.64.82-3.28,2.46-3.28,2.46-.82,5.74-.82,6.56-1.64s.82-5.74-2.46-8.2-10.65,0-11.47,5.74c-.82,7.38-8.2,10.66-12.3,11.48-5.74,1.64-7.38,0-12.3-2.46s-14.76-2.46-18-.82-5.74,6.56-2.46,6.56,9.84,1.64,13.12,1.64c4.92,0,8.2,1.64,9.84,5.74s1.64,4.1-4.1,3.28c-12.3-1.64-23.78.82-31.16,2.46-2.46.82-10.65,8.2-12.29,9-.82.82-7.38,4.1-11.48,7.38s-3.28,6.56-2.46,10.66c0,.82,1.64,8.19,1.64,9,0,0,4.1-4.1,4.92-5.74.82-.81,9-5.73,13.11-10.65,3.28-4.1,13.94-10.66,17.22-11.48,9-4.1,19.68-4.1,22.14-3.28s7.38,4.92,4.1,7.38a89.39,89.39,0,0,1-10.66,9c-2.46,1.64-4.92,0-5.74,1.64s-5.74,4.92-7.38,4.92c-5.74,0-13.12,1.63-15.58,1.63-4.1.82-11.47,3.28-13.93,5.74C313.07,541,310.61,544.27,310.61,546.73Z"/><path class="cls-4" d="M310.61,549.19c0,1.64,6.56,4.1,4.92,7.38-3.28,5.74,4.92,8.2,3.28,11.48s-2.46,7.38-4.92,6.56c-2.46-1.64-9.84-25.42-10.66-31.16-.82-3.28-2.46-20.49-2.46-24.59s4.92-4.92,4.92-5.74c1.64-.82,13.12-5.74,14.76-6.56,2.46-1.64,10.65-8.2,11.47-9.84s.82-5.74,1.64-9.84c0-3.28.82-6.56-.82-6.56-2.46-.82-4.92.82-4.92,2.46-.82,2.46-1.64,6.56-3.28,6.56-3.27-.82-5.73,5.74-5.73,8.2,0,4.1-8.2,4.92-7.38,1.64,0-1.64,3.28-13.94,4.1-18,0-3.28-3.28-5.74-1.64-9,1.64-2.46,1.64-12.29,2.46-13.93,1.64-3.28,9-5.74,5.74,4.92-.82,3.27-2.46,6.55.82,8.19,1.63.82,3.27.82,5.73-5.74,1.64-4.09,9-2.45,5.74,4.92-3.28,5.74,4.1,4.92,4.92,5.74,1.64.82,1.64,3.28,1.64,5.74s2.46,3.28,4.92,2.46,12.3-5.74,18-4.92c6.56,1.64,9.84,2.46,11.48,3.28,2.46.82,5.74.82,4.92-2.46s2.46-8.2,2.46-10.66c.82-2.46,4.92-4.1,4.1-6.55s-8.2-4.92-9.84-4.92-3.28,6.55-4.1,9.83c-.82,4.1-6.56,4.1-7.38.82-1.64-4.91-4.1-4.91-5.74-10.65-.82-4.1-4.92-4.1-7.38-6.56-4.92-4.1-.82-7.38-.82-9-.82-4.92-5.74-5.74-7.38-3.28s-4.92,0-6.56-.82c-2.46,0-9.84.82-13.12.82-4.09.82-4.91,2.46-5.73,4.1-1.64,4.1-9.84-1.64-9.84-1.64s10.66-22.14,12.3-28.7c1.64-5.74,10.65-18.85,11.47-19.67,1.64-3.28,6.56,1.63,1.64,9-3.28,4.1-11.47,18.86-13.93,26.24-1.64,4.92,6.55,4.1,7.37.82.82-1.64,8.2-16.4,11.48-22.14s11.48-19.67,13.12-23,4.92-6.56,6.56-9.84,7.38-3.28,4.92,3.28c-2.46,7.38-12.3,23.77-14.76,27.05s-9.84,17.22-10.66,18.86c-.82,2.46-.82,4.92,0,5.74,1.64.82,7.38-1.64,9-4.1s8.2-18.86,9.84-22.14c2.46-3.28,6.56-12.29,9-15.57s8.2.82,5.74,5.74c-6.56,10.65-12.3,23.77-15.58,27.05-3.28,4.1,0,9.84,4.92,4.92,4.1-4.1,5.74-9,8.2-13.12s4.92-9,6.56-10.66c1.64-2.46,6.56,0,5.74,3.28S377,415.55,374.56,418a21.85,21.85,0,0,0-4.92,8.2c-1.64,2.46,0,4.92,2.46,6.56,3.28,2.46,4.92,1.64,7.38,4.92,2.46,2.46,4.92,5.74,7.38,6.56,2.46,1.64,5.74,2.46,8.19,5.74,1.64,3.28,4.1,9.84,9,11.48,3.28,1.64,4.92,2.46,6.56,5.73,3.28,4.1,4.92,4.92,7.38,4.92,3.28,0,3.28,4.1,4.1,7.38,0,2.46-3.28,8.2-3.28,11.48s.82,13.12-2.46,13.94c-1.64.82-6.56-1.64-8.2,0s-5.74.82-7.38-.82c-1.64-2.46-4.92-2.46-5.74-1.64-2.45,1.64-4.91,1.64-6.55,0-.82-.82-4.1,0-5.74.82-5.74,2.46-4.92-2.46-4.92-2.46s1.64-4.1,3.28-4.1,4.1,1.64,4.92.82c.82,0,2.46-4.1,4.92-4.92,1.64-1.64,4.09-1.64,3.27-4.92-.81-1.64.82-3.28,2.46-3.28,2.46-.82,5.74-.82,6.56-1.64s.82-5.74-2.46-8.2-10.65,0-11.47,5.74c-.82,7.38-8.2,10.66-12.3,11.48-5.74,1.64-7.38,0-12.3-2.46s-14.76-2.46-18-.82-5.74,6.56-2.46,6.56,9.84,1.64,13.12,1.64c4.92,0,8.2,1.64,9.84,5.74s1.64,4.1-4.1,3.28c-12.3-1.64-23.78.82-31.16,2.46-2.46.82-10.65,8.2-12.29,9-.82.82-7.38,4.1-11.48,7.38s-3.28,6.56-2.46,10.66c0,.81,1.64,8.19,1.64,9,0,0,4.1-4.1,4.92-5.74.82-.82,9-5.73,13.11-10.65,3.28-4.1,13.94-10.66,17.22-12.3,9-4.1,19.68-4.1,22.14-3.28s7.38,4.92,4.1,7.38a89.39,89.39,0,0,1-10.66,9c-2.46,1.64-4.92,0-5.74,1.64-1.64,1.64-5.74,4.92-7.38,4.92-5.74,0-13.12,1.63-15.58,1.63-4.1.82-11.47,3.28-13.93,5.74-2.46.82-4.92,4.1-4.92,6.56Z"/></svg>